<svg width="1440" height="775" viewBox="0 0 1440 775" fill="none" xmlns="http://www.w3.org/2000/svg">
<g clip-path="url(#clip0_2_21)">
<path d="M0 0H1440V775H0V0Z" fill="black"/>
<path d="M-139.773 356.812H-133.023V391.441C-133.023 395.285 -133.879 398.484 -135.59 401.039C-137.301 403.594 -139.574 405.516 -142.41 406.805C-145.223 408.07 -148.281 408.703 -151.586 408.703C-155.055 408.703 -158.195 408.07 -161.008 406.805C-163.797 405.516 -166.012 403.594 -167.652 401.039C-169.27 398.484 -170.078 395.285 -170.078 391.441V356.812H-163.363V391.441C-163.363 394.113 -162.871 396.316 -161.887 398.051C-160.902 399.785 -159.531 401.074 -157.773 401.918C-155.992 402.762 -153.93 403.184 -151.586 403.184C-149.219 403.184 -147.156 402.762 -145.398 401.918C-143.617 401.074 -142.234 399.785 -141.25 398.051C-140.266 396.316 -139.773 394.113 -139.773 391.441V356.812ZM-118.961 369.961L-110.629 383.812L-102.191 369.961H-94.5625L-107.008 388.734L-94.1758 408H-101.699L-110.488 393.727L-119.277 408H-126.836L-114.039 388.734L-126.449 369.961H-118.961ZM-54.9414 408H-65.6289L-65.5586 402.48H-54.9414C-51.2852 402.48 -48.2383 401.719 -45.8008 400.195C-43.3633 398.648 -41.5352 396.492 -40.3164 393.727C-39.0742 390.938 -38.4531 387.68 -38.4531 383.953V380.824C-38.4531 377.895 -38.8047 375.293 -39.5078 373.02C-40.2109 370.723 -41.2422 368.789 -42.6016 367.219C-43.9609 365.625 -45.625 364.418 -47.5938 363.598C-49.5391 362.777 -51.7773 362.367 -54.3086 362.367H-65.8398V356.812H-54.3086C-50.957 356.812 -47.8984 357.375 -45.1328 358.5C-42.3672 359.602 -39.9883 361.207 -37.9961 363.316C-35.9805 365.402 -34.4336 367.934 -33.3555 370.91C-32.2773 373.863 -31.7383 377.191 -31.7383 380.895V383.953C-31.7383 387.656 -32.2773 390.996 -33.3555 393.973C-34.4336 396.926 -35.9922 399.445 -38.0312 401.531C-40.0469 403.617 -42.4844 405.223 -45.3438 406.348C-48.1797 407.449 -51.3789 408 -54.9414 408ZM-62.0078 356.812V408H-68.793V356.812H-62.0078ZM-6.74219 408.703C-9.39062 408.703 -11.793 408.258 -13.9492 407.367C-16.082 406.453 -17.9219 405.176 -19.4688 403.535C-20.9922 401.895 -22.1641 399.949 -22.9844 397.699C-23.8047 395.449 -24.2148 392.988 -24.2148 390.316V388.84C-24.2148 385.746 -23.7578 382.992 -22.8438 380.578C-21.9297 378.141 -20.6875 376.078 -19.1172 374.391C-17.5469 372.703 -15.7656 371.426 -13.7734 370.559C-11.7812 369.691 -9.71875 369.258 -7.58594 369.258C-4.86719 369.258 -2.52344 369.727 -0.554688 370.664C1.4375 371.602 3.06641 372.914 4.33203 374.602C5.59766 376.266 6.53516 378.234 7.14453 380.508C7.75391 382.758 8.05859 385.219 8.05859 387.891V390.809H-20.3477V385.5H1.55469V385.008C1.46094 383.32 1.10938 381.68 0.5 380.086C-0.0859375 378.492 -1.02344 377.18 -2.3125 376.148C-3.60156 375.117 -5.35938 374.602 -7.58594 374.602C-9.0625 374.602 -10.4219 374.918 -11.6641 375.551C-12.9062 376.16 -13.9727 377.074 -14.8633 378.293C-15.7539 379.512 -16.4453 381 -16.9375 382.758C-17.4297 384.516 -17.6758 386.543 -17.6758 388.84V390.316C-17.6758 392.121 -17.4297 393.82 -16.9375 395.414C-16.4219 396.984 -15.6836 398.367 -14.7227 399.562C-13.7383 400.758 -12.5547 401.695 -11.1719 402.375C-9.76562 403.055 -8.17188 403.395 -6.39062 403.395C-4.09375 403.395 -2.14844 402.926 -0.554688 401.988C1.03906 401.051 2.43359 399.797 3.62891 398.227L7.56641 401.355C6.74609 402.598 5.70312 403.781 4.4375 404.906C3.17188 406.031 1.61328 406.945 -0.238281 407.648C-2.06641 408.352 -4.23438 408.703 -6.74219 408.703ZM37.8008 397.91C37.8008 396.973 37.5898 396.105 37.168 395.309C36.7695 394.488 35.9375 393.75 34.6719 393.094C33.4297 392.414 31.5547 391.828 29.0469 391.336C26.9375 390.891 25.0273 390.363 23.3164 389.754C21.6289 389.145 20.1875 388.406 18.9922 387.539C17.8203 386.672 16.918 385.652 16.2852 384.48C15.6523 383.309 15.3359 381.938 15.3359 380.367C15.3359 378.867 15.6641 377.449 16.3203 376.113C17 374.777 17.9492 373.594 19.168 372.562C20.4102 371.531 21.8984 370.723 23.6328 370.137C25.3672 369.551 27.3008 369.258 29.4336 369.258C32.4805 369.258 35.082 369.797 37.2383 370.875C39.3945 371.953 41.0469 373.395 42.1953 375.199C43.3438 376.98 43.918 378.961 43.918 381.141H37.4141C37.4141 380.086 37.0977 379.066 36.4648 378.082C35.8555 377.074 34.9531 376.242 33.7578 375.586C32.5859 374.93 31.1445 374.602 29.4336 374.602C27.6289 374.602 26.1641 374.883 25.0391 375.445C23.9375 375.984 23.1289 376.676 22.6133 377.52C22.1211 378.363 21.875 379.254 21.875 380.191C21.875 380.895 21.9922 381.527 22.2266 382.09C22.4844 382.629 22.9297 383.133 23.5625 383.602C24.1953 384.047 25.0859 384.469 26.2344 384.867C27.3828 385.266 28.8477 385.664 30.6289 386.062C33.7461 386.766 36.3125 387.609 38.3281 388.594C40.3438 389.578 41.8438 390.785 42.8281 392.215C43.8125 393.645 44.3047 395.379 44.3047 397.418C44.3047 399.082 43.9531 400.605 43.25 401.988C42.5703 403.371 41.5742 404.566 40.2617 405.574C38.9727 406.559 37.4258 407.332 35.6211 407.895C33.8398 408.434 31.8359 408.703 29.6094 408.703C26.2578 408.703 23.4219 408.105 21.1016 406.91C18.7812 405.715 17.0234 404.168 15.8281 402.27C14.6328 400.371 14.0352 398.367 14.0352 396.258H20.5742C20.668 398.039 21.1836 399.457 22.1211 400.512C23.0586 401.543 24.207 402.281 25.5664 402.727C26.9258 403.148 28.2734 403.359 29.6094 403.359C31.3906 403.359 32.8789 403.125 34.0742 402.656C35.293 402.188 36.2188 401.543 36.8516 400.723C37.4844 399.902 37.8008 398.965 37.8008 397.91ZM59.9141 369.961V408H53.375V369.961H59.9141ZM52.8828 359.871C52.8828 358.816 53.1992 357.926 53.832 357.199C54.4883 356.473 55.4492 356.109 56.7148 356.109C57.957 356.109 58.9062 356.473 59.5625 357.199C60.2422 357.926 60.582 358.816 60.582 359.871C60.582 360.879 60.2422 361.746 59.5625 362.473C58.9062 363.176 57.957 363.527 56.7148 363.527C55.4492 363.527 54.4883 363.176 53.832 362.473C53.1992 361.746 52.8828 360.879 52.8828 359.871ZM95 369.961H100.906V407.191C100.906 410.543 100.227 413.402 98.8672 415.77C97.5078 418.137 95.6094 419.93 93.1719 421.148C90.7578 422.391 87.9688 423.012 84.8047 423.012C83.4922 423.012 81.9453 422.801 80.1641 422.379C78.4062 421.98 76.6719 421.289 74.9609 420.305C73.2734 419.344 71.8555 418.043 70.707 416.402L74.1172 412.535C75.7109 414.457 77.375 415.793 79.1094 416.543C80.8672 417.293 82.6016 417.668 84.3125 417.668C86.375 417.668 88.1562 417.281 89.6562 416.508C91.1562 415.734 92.3164 414.586 93.1367 413.062C93.9805 411.562 94.4023 409.711 94.4023 407.508V378.328L95 369.961ZM68.8086 389.402V388.664C68.8086 385.758 69.1484 383.121 69.8281 380.754C70.5312 378.363 71.5273 376.312 72.8164 374.602C74.1289 372.891 75.7109 371.578 77.5625 370.664C79.4141 369.727 81.5 369.258 83.8203 369.258C86.2109 369.258 88.2969 369.68 90.0781 370.523C91.8828 371.344 93.4062 372.551 94.6484 374.145C95.9141 375.715 96.9102 377.613 97.6367 379.84C98.3633 382.066 98.8672 384.586 99.1484 387.398V390.633C98.8906 393.422 98.3867 395.93 97.6367 398.156C96.9102 400.383 95.9141 402.281 94.6484 403.852C93.4062 405.422 91.8828 406.629 90.0781 407.473C88.2734 408.293 86.1641 408.703 83.75 408.703C81.4766 408.703 79.4141 408.223 77.5625 407.262C75.7344 406.301 74.1641 404.953 72.8516 403.219C71.5391 401.484 70.5312 399.445 69.8281 397.102C69.1484 394.734 68.8086 392.168 68.8086 389.402ZM75.3125 388.664V389.402C75.3125 391.301 75.5 393.082 75.875 394.746C76.2734 396.41 76.8711 397.875 77.668 399.141C78.4883 400.406 79.5312 401.402 80.7969 402.129C82.0625 402.832 83.5742 403.184 85.332 403.184C87.4883 403.184 89.2695 402.727 90.6758 401.812C92.082 400.898 93.1953 399.691 94.0156 398.191C94.8594 396.691 95.5156 395.062 95.9844 393.305V384.832C95.7266 383.543 95.3281 382.301 94.7891 381.105C94.2734 379.887 93.5938 378.809 92.75 377.871C91.9297 376.91 90.9102 376.148 89.6914 375.586C88.4727 375.023 87.043 374.742 85.4023 374.742C83.6211 374.742 82.0859 375.117 80.7969 375.867C79.5312 376.594 78.4883 377.602 77.668 378.891C76.8711 380.156 76.2734 381.633 75.875 383.32C75.5 384.984 75.3125 386.766 75.3125 388.664ZM117.289 378.082V408H110.785V369.961H116.938L117.289 378.082ZM115.742 387.539L113.035 387.434C113.059 384.832 113.445 382.43 114.195 380.227C114.945 378 116 376.066 117.359 374.426C118.719 372.785 120.336 371.52 122.211 370.629C124.109 369.715 126.207 369.258 128.504 369.258C130.379 369.258 132.066 369.516 133.566 370.031C135.066 370.523 136.344 371.32 137.398 372.422C138.477 373.523 139.297 374.953 139.859 376.711C140.422 378.445 140.703 380.566 140.703 383.074V408H134.164V383.004C134.164 381.012 133.871 379.418 133.285 378.223C132.699 377.004 131.844 376.125 130.719 375.586C129.594 375.023 128.211 374.742 126.57 374.742C124.953 374.742 123.477 375.082 122.141 375.762C120.828 376.441 119.691 377.379 118.73 378.574C117.793 379.77 117.055 381.141 116.516 382.688C116 384.211 115.742 385.828 115.742 387.539ZM188.305 387.926H174.629V382.406H188.305C190.953 382.406 193.098 381.984 194.738 381.141C196.379 380.297 197.574 379.125 198.324 377.625C199.098 376.125 199.484 374.414 199.484 372.492C199.484 370.734 199.098 369.082 198.324 367.535C197.574 365.988 196.379 364.746 194.738 363.809C193.098 362.848 190.953 362.367 188.305 362.367H176.211V408H169.426V356.812H188.305C192.172 356.812 195.441 357.48 198.113 358.816C200.785 360.152 202.812 362.004 204.195 364.371C205.578 366.715 206.27 369.398 206.27 372.422C206.27 375.703 205.578 378.504 204.195 380.824C202.812 383.145 200.785 384.914 198.113 386.133C195.441 387.328 192.172 387.926 188.305 387.926ZM220.367 375.938V408H213.863V369.961H220.191L220.367 375.938ZM232.25 369.75L232.215 375.797C231.676 375.68 231.16 375.609 230.668 375.586C230.199 375.539 229.66 375.516 229.051 375.516C227.551 375.516 226.227 375.75 225.078 376.219C223.93 376.688 222.957 377.344 222.16 378.188C221.363 379.031 220.73 380.039 220.262 381.211C219.816 382.359 219.523 383.625 219.383 385.008L217.555 386.062C217.555 383.766 217.777 381.609 218.223 379.594C218.691 377.578 219.406 375.797 220.367 374.25C221.328 372.68 222.547 371.461 224.023 370.594C225.523 369.703 227.305 369.258 229.367 369.258C229.836 369.258 230.375 369.316 230.984 369.434C231.594 369.527 232.016 369.633 232.25 369.75ZM235.836 389.402V388.594C235.836 385.852 236.234 383.309 237.031 380.965C237.828 378.598 238.977 376.547 240.477 374.812C241.977 373.055 243.793 371.695 245.926 370.734C248.059 369.75 250.449 369.258 253.098 369.258C255.77 369.258 258.172 369.75 260.305 370.734C262.461 371.695 264.289 373.055 265.789 374.812C267.312 376.547 268.473 378.598 269.27 380.965C270.066 383.309 270.465 385.852 270.465 388.594V389.402C270.465 392.145 270.066 394.688 269.27 397.031C268.473 399.375 267.312 401.426 265.789 403.184C264.289 404.918 262.473 406.277 260.34 407.262C258.23 408.223 255.84 408.703 253.168 408.703C250.496 408.703 248.094 408.223 245.961 407.262C243.828 406.277 242 404.918 240.477 403.184C238.977 401.426 237.828 399.375 237.031 397.031C236.234 394.688 235.836 392.145 235.836 389.402ZM242.34 388.594V389.402C242.34 391.301 242.562 393.094 243.008 394.781C243.453 396.445 244.121 397.922 245.012 399.211C245.926 400.5 247.062 401.52 248.422 402.27C249.781 402.996 251.363 403.359 253.168 403.359C254.949 403.359 256.508 402.996 257.844 402.27C259.203 401.52 260.328 400.5 261.219 399.211C262.109 397.922 262.777 396.445 263.223 394.781C263.691 393.094 263.926 391.301 263.926 389.402V388.594C263.926 386.719 263.691 384.949 263.223 383.285C262.777 381.598 262.098 380.109 261.184 378.82C260.293 377.508 259.168 376.477 257.809 375.727C256.473 374.977 254.902 374.602 253.098 374.602C251.316 374.602 249.746 374.977 248.387 375.727C247.051 376.477 245.926 377.508 245.012 378.82C244.121 380.109 243.453 381.598 243.008 383.285C242.562 384.949 242.34 386.719 242.34 388.594ZM302.598 400.617V354H309.137V408H303.16L302.598 400.617ZM277.004 389.402V388.664C277.004 385.758 277.355 383.121 278.059 380.754C278.785 378.363 279.805 376.312 281.117 374.602C282.453 372.891 284.035 371.578 285.863 370.664C287.715 369.727 289.777 369.258 292.051 369.258C294.441 369.258 296.527 369.68 298.309 370.523C300.113 371.344 301.637 372.551 302.879 374.145C304.145 375.715 305.141 377.613 305.867 379.84C306.594 382.066 307.098 384.586 307.379 387.398V390.633C307.121 393.422 306.617 395.93 305.867 398.156C305.141 400.383 304.145 402.281 302.879 403.852C301.637 405.422 300.113 406.629 298.309 407.473C296.504 408.293 294.395 408.703 291.98 408.703C289.754 408.703 287.715 408.223 285.863 407.262C284.035 406.301 282.453 404.953 281.117 403.219C279.805 401.484 278.785 399.445 278.059 397.102C277.355 394.734 277.004 392.168 277.004 389.402ZM283.543 388.664V389.402C283.543 391.301 283.73 393.082 284.105 394.746C284.504 396.41 285.113 397.875 285.934 399.141C286.754 400.406 287.797 401.402 289.062 402.129C290.328 402.832 291.84 403.184 293.598 403.184C295.754 403.184 297.523 402.727 298.906 401.812C300.312 400.898 301.438 399.691 302.281 398.191C303.125 396.691 303.781 395.062 304.25 393.305V384.832C303.969 383.543 303.559 382.301 303.02 381.105C302.504 379.887 301.824 378.809 300.98 377.871C300.16 376.91 299.141 376.148 297.922 375.586C296.727 375.023 295.309 374.742 293.668 374.742C291.887 374.742 290.352 375.117 289.062 375.867C287.797 376.594 286.754 377.602 285.934 378.891C285.113 380.156 284.504 381.633 284.105 383.32C283.73 384.984 283.543 386.766 283.543 388.664ZM342.535 399.211V369.961H349.074V408H342.852L342.535 399.211ZM343.766 391.195L346.473 391.125C346.473 393.656 346.203 396 345.664 398.156C345.148 400.289 344.305 402.141 343.133 403.711C341.961 405.281 340.426 406.512 338.527 407.402C336.629 408.27 334.32 408.703 331.602 408.703C329.75 408.703 328.051 408.434 326.504 407.895C324.98 407.355 323.668 406.523 322.566 405.398C321.465 404.273 320.609 402.809 320 401.004C319.414 399.199 319.121 397.031 319.121 394.5V369.961H325.625V394.57C325.625 396.281 325.812 397.699 326.188 398.824C326.586 399.926 327.113 400.805 327.77 401.461C328.449 402.094 329.199 402.539 330.02 402.797C330.863 403.055 331.73 403.184 332.621 403.184C335.387 403.184 337.578 402.656 339.195 401.602C340.812 400.523 341.973 399.082 342.676 397.277C343.402 395.449 343.766 393.422 343.766 391.195ZM374.211 403.359C375.758 403.359 377.188 403.043 378.5 402.41C379.812 401.777 380.891 400.91 381.734 399.809C382.578 398.684 383.059 397.406 383.176 395.977H389.363C389.246 398.227 388.484 400.324 387.078 402.27C385.695 404.191 383.879 405.75 381.629 406.945C379.379 408.117 376.906 408.703 374.211 408.703C371.352 408.703 368.855 408.199 366.723 407.191C364.613 406.184 362.855 404.801 361.449 403.043C360.066 401.285 359.023 399.27 358.32 396.996C357.641 394.699 357.301 392.273 357.301 389.719V388.242C357.301 385.688 357.641 383.273 358.32 381C359.023 378.703 360.066 376.676 361.449 374.918C362.855 373.16 364.613 371.777 366.723 370.77C368.855 369.762 371.352 369.258 374.211 369.258C377.188 369.258 379.789 369.867 382.016 371.086C384.242 372.281 385.988 373.922 387.254 376.008C388.543 378.07 389.246 380.414 389.363 383.039H383.176C383.059 381.469 382.613 380.051 381.84 378.785C381.09 377.52 380.059 376.512 378.746 375.762C377.457 374.988 375.945 374.602 374.211 374.602C372.219 374.602 370.543 375 369.184 375.797C367.848 376.57 366.781 377.625 365.984 378.961C365.211 380.273 364.648 381.738 364.297 383.355C363.969 384.949 363.805 386.578 363.805 388.242V389.719C363.805 391.383 363.969 393.023 364.297 394.641C364.625 396.258 365.176 397.723 365.949 399.035C366.746 400.348 367.812 401.402 369.148 402.199C370.508 402.973 372.195 403.359 374.211 403.359ZM412.602 369.961V374.953H392.035V369.961H412.602ZM398.996 360.715H405.5V398.578C405.5 399.867 405.699 400.84 406.098 401.496C406.496 402.152 407.012 402.586 407.645 402.797C408.277 403.008 408.957 403.113 409.684 403.113C410.223 403.113 410.785 403.066 411.371 402.973C411.98 402.855 412.438 402.762 412.742 402.691L412.777 408C412.262 408.164 411.582 408.316 410.738 408.457C409.918 408.621 408.922 408.703 407.75 408.703C406.156 408.703 404.691 408.387 403.355 407.754C402.02 407.121 400.953 406.066 400.156 404.59C399.383 403.09 398.996 401.074 398.996 398.543V360.715ZM452.926 408H442.238L442.309 402.48H452.926C456.582 402.48 459.629 401.719 462.066 400.195C464.504 398.648 466.332 396.492 467.551 393.727C468.793 390.938 469.414 387.68 469.414 383.953V380.824C469.414 377.895 469.062 375.293 468.359 373.02C467.656 370.723 466.625 368.789 465.266 367.219C463.906 365.625 462.242 364.418 460.273 363.598C458.328 362.777 456.09 362.367 453.559 362.367H442.027V356.812H453.559C456.91 356.812 459.969 357.375 462.734 358.5C465.5 359.602 467.879 361.207 469.871 363.316C471.887 365.402 473.434 367.934 474.512 370.91C475.59 373.863 476.129 377.191 476.129 380.895V383.953C476.129 387.656 475.59 390.996 474.512 393.973C473.434 396.926 471.875 399.445 469.836 401.531C467.82 403.617 465.383 405.223 462.523 406.348C459.688 407.449 456.488 408 452.926 408ZM445.859 356.812V408H439.074V356.812H445.859ZM501.125 408.703C498.477 408.703 496.074 408.258 493.918 407.367C491.785 406.453 489.945 405.176 488.398 403.535C486.875 401.895 485.703 399.949 484.883 397.699C484.062 395.449 483.652 392.988 483.652 390.316V388.84C483.652 385.746 484.109 382.992 485.023 380.578C485.938 378.141 487.18 376.078 488.75 374.391C490.32 372.703 492.102 371.426 494.094 370.559C496.086 369.691 498.148 369.258 500.281 369.258C503 369.258 505.344 369.727 507.312 370.664C509.305 371.602 510.934 372.914 512.199 374.602C513.465 376.266 514.402 378.234 515.012 380.508C515.621 382.758 515.926 385.219 515.926 387.891V390.809H487.52V385.5H509.422V385.008C509.328 383.32 508.977 381.68 508.367 380.086C507.781 378.492 506.844 377.18 505.555 376.148C504.266 375.117 502.508 374.602 500.281 374.602C498.805 374.602 497.445 374.918 496.203 375.551C494.961 376.16 493.895 377.074 493.004 378.293C492.113 379.512 491.422 381 490.93 382.758C490.438 384.516 490.191 386.543 490.191 388.84V390.316C490.191 392.121 490.438 393.82 490.93 395.414C491.445 396.984 492.184 398.367 493.145 399.562C494.129 400.758 495.312 401.695 496.695 402.375C498.102 403.055 499.695 403.395 501.477 403.395C503.773 403.395 505.719 402.926 507.312 401.988C508.906 401.051 510.301 399.797 511.496 398.227L515.434 401.355C514.613 402.598 513.57 403.781 512.305 404.906C511.039 406.031 509.48 406.945 507.629 407.648C505.801 408.352 503.633 408.703 501.125 408.703ZM545.668 397.91C545.668 396.973 545.457 396.105 545.035 395.309C544.637 394.488 543.805 393.75 542.539 393.094C541.297 392.414 539.422 391.828 536.914 391.336C534.805 390.891 532.895 390.363 531.184 389.754C529.496 389.145 528.055 388.406 526.859 387.539C525.688 386.672 524.785 385.652 524.152 384.48C523.52 383.309 523.203 381.938 523.203 380.367C523.203 378.867 523.531 377.449 524.188 376.113C524.867 374.777 525.816 373.594 527.035 372.562C528.277 371.531 529.766 370.723 531.5 370.137C533.234 369.551 535.168 369.258 537.301 369.258C540.348 369.258 542.949 369.797 545.105 370.875C547.262 371.953 548.914 373.395 550.062 375.199C551.211 376.98 551.785 378.961 551.785 381.141H545.281C545.281 380.086 544.965 379.066 544.332 378.082C543.723 377.074 542.82 376.242 541.625 375.586C540.453 374.93 539.012 374.602 537.301 374.602C535.496 374.602 534.031 374.883 532.906 375.445C531.805 375.984 530.996 376.676 530.48 377.52C529.988 378.363 529.742 379.254 529.742 380.191C529.742 380.895 529.859 381.527 530.094 382.09C530.352 382.629 530.797 383.133 531.43 383.602C532.062 384.047 532.953 384.469 534.102 384.867C535.25 385.266 536.715 385.664 538.496 386.062C541.613 386.766 544.18 387.609 546.195 388.594C548.211 389.578 549.711 390.785 550.695 392.215C551.68 393.645 552.172 395.379 552.172 397.418C552.172 399.082 551.82 400.605 551.117 401.988C550.438 403.371 549.441 404.566 548.129 405.574C546.84 406.559 545.293 407.332 543.488 407.895C541.707 408.434 539.703 408.703 537.477 408.703C534.125 408.703 531.289 408.105 528.969 406.91C526.648 405.715 524.891 404.168 523.695 402.27C522.5 400.371 521.902 398.367 521.902 396.258H528.441C528.535 398.039 529.051 399.457 529.988 400.512C530.926 401.543 532.074 402.281 533.434 402.727C534.793 403.148 536.141 403.359 537.477 403.359C539.258 403.359 540.746 403.125 541.941 402.656C543.16 402.188 544.086 401.543 544.719 400.723C545.352 399.902 545.668 398.965 545.668 397.91ZM567.781 369.961V408H561.242V369.961H567.781ZM560.75 359.871C560.75 358.816 561.066 357.926 561.699 357.199C562.355 356.473 563.316 356.109 564.582 356.109C565.824 356.109 566.773 356.473 567.43 357.199C568.109 357.926 568.449 358.816 568.449 359.871C568.449 360.879 568.109 361.746 567.43 362.473C566.773 363.176 565.824 363.527 564.582 363.527C563.316 363.527 562.355 363.176 561.699 362.473C561.066 361.746 560.75 360.879 560.75 359.871ZM602.867 369.961H608.773V407.191C608.773 410.543 608.094 413.402 606.734 415.77C605.375 418.137 603.477 419.93 601.039 421.148C598.625 422.391 595.836 423.012 592.672 423.012C591.359 423.012 589.812 422.801 588.031 422.379C586.273 421.98 584.539 421.289 582.828 420.305C581.141 419.344 579.723 418.043 578.574 416.402L581.984 412.535C583.578 414.457 585.242 415.793 586.977 416.543C588.734 417.293 590.469 417.668 592.18 417.668C594.242 417.668 596.023 417.281 597.523 416.508C599.023 415.734 600.184 414.586 601.004 413.062C601.848 411.562 602.27 409.711 602.27 407.508V378.328L602.867 369.961ZM576.676 389.402V388.664C576.676 385.758 577.016 383.121 577.695 380.754C578.398 378.363 579.395 376.312 580.684 374.602C581.996 372.891 583.578 371.578 585.43 370.664C587.281 369.727 589.367 369.258 591.688 369.258C594.078 369.258 596.164 369.68 597.945 370.523C599.75 371.344 601.273 372.551 602.516 374.145C603.781 375.715 604.777 377.613 605.504 379.84C606.23 382.066 606.734 384.586 607.016 387.398V390.633C606.758 393.422 606.254 395.93 605.504 398.156C604.777 400.383 603.781 402.281 602.516 403.852C601.273 405.422 599.75 406.629 597.945 407.473C596.141 408.293 594.031 408.703 591.617 408.703C589.344 408.703 587.281 408.223 585.43 407.262C583.602 406.301 582.031 404.953 580.719 403.219C579.406 401.484 578.398 399.445 577.695 397.102C577.016 394.734 576.676 392.168 576.676 389.402ZM583.18 388.664V389.402C583.18 391.301 583.367 393.082 583.742 394.746C584.141 396.41 584.738 397.875 585.535 399.141C586.355 400.406 587.398 401.402 588.664 402.129C589.93 402.832 591.441 403.184 593.199 403.184C595.355 403.184 597.137 402.727 598.543 401.812C599.949 400.898 601.062 399.691 601.883 398.191C602.727 396.691 603.383 395.062 603.852 393.305V384.832C603.594 383.543 603.195 382.301 602.656 381.105C602.141 379.887 601.461 378.809 600.617 377.871C599.797 376.91 598.777 376.148 597.559 375.586C596.34 375.023 594.91 374.742 593.27 374.742C591.488 374.742 589.953 375.117 588.664 375.867C587.398 376.594 586.355 377.602 585.535 378.891C584.738 380.156 584.141 381.633 583.742 383.32C583.367 384.984 583.18 386.766 583.18 388.664ZM625.156 378.082V408H618.652V369.961H624.805L625.156 378.082ZM623.609 387.539L620.902 387.434C620.926 384.832 621.312 382.43 622.062 380.227C622.812 378 623.867 376.066 625.227 374.426C626.586 372.785 628.203 371.52 630.078 370.629C631.977 369.715 634.074 369.258 636.371 369.258C638.246 369.258 639.934 369.516 641.434 370.031C642.934 370.523 644.211 371.32 645.266 372.422C646.344 373.523 647.164 374.953 647.727 376.711C648.289 378.445 648.57 380.566 648.57 383.074V408H642.031V383.004C642.031 381.012 641.738 379.418 641.152 378.223C640.566 377.004 639.711 376.125 638.586 375.586C637.461 375.023 636.078 374.742 634.438 374.742C632.82 374.742 631.344 375.082 630.008 375.762C628.695 376.441 627.559 377.379 626.598 378.574C625.66 379.77 624.922 381.141 624.383 382.688C623.867 384.211 623.609 385.828 623.609 387.539ZM696.172 387.926H682.496V382.406H696.172C698.82 382.406 700.965 381.984 702.605 381.141C704.246 380.297 705.441 379.125 706.191 377.625C706.965 376.125 707.352 374.414 707.352 372.492C707.352 370.734 706.965 369.082 706.191 367.535C705.441 365.988 704.246 364.746 702.605 363.809C700.965 362.848 698.82 362.367 696.172 362.367H684.078V408H677.293V356.812H696.172C700.039 356.812 703.309 357.48 705.98 358.816C708.652 360.152 710.68 362.004 712.062 364.371C713.445 366.715 714.137 369.398 714.137 372.422C714.137 375.703 713.445 378.504 712.062 380.824C710.68 383.145 708.652 384.914 705.98 386.133C703.309 387.328 700.039 387.926 696.172 387.926ZM728.234 354V408H721.73V354H728.234ZM726.688 387.539L723.98 387.434C724.004 384.832 724.391 382.43 725.141 380.227C725.891 378 726.945 376.066 728.305 374.426C729.664 372.785 731.281 371.52 733.156 370.629C735.055 369.715 737.152 369.258 739.449 369.258C741.324 369.258 743.012 369.516 744.512 370.031C746.012 370.523 747.289 371.32 748.344 372.422C749.422 373.523 750.242 374.953 750.805 376.711C751.367 378.445 751.648 380.566 751.648 383.074V408H745.109V383.004C745.109 381.012 744.816 379.418 744.23 378.223C743.645 377.004 742.789 376.125 741.664 375.586C740.539 375.023 739.156 374.742 737.516 374.742C735.898 374.742 734.422 375.082 733.086 375.762C731.773 376.441 730.637 377.379 729.676 378.574C728.738 379.77 728 381.141 727.461 382.688C726.945 384.211 726.688 385.828 726.688 387.539ZM759.664 389.402V388.594C759.664 385.852 760.062 383.309 760.859 380.965C761.656 378.598 762.805 376.547 764.305 374.812C765.805 373.055 767.621 371.695 769.754 370.734C771.887 369.75 774.277 369.258 776.926 369.258C779.598 369.258 782 369.75 784.133 370.734C786.289 371.695 788.117 373.055 789.617 374.812C791.141 376.547 792.301 378.598 793.098 380.965C793.895 383.309 794.293 385.852 794.293 388.594V389.402C794.293 392.145 793.895 394.688 793.098 397.031C792.301 399.375 791.141 401.426 789.617 403.184C788.117 404.918 786.301 406.277 784.168 407.262C782.059 408.223 779.668 408.703 776.996 408.703C774.324 408.703 771.922 408.223 769.789 407.262C767.656 406.277 765.828 404.918 764.305 403.184C762.805 401.426 761.656 399.375 760.859 397.031C760.062 394.688 759.664 392.145 759.664 389.402ZM766.168 388.594V389.402C766.168 391.301 766.391 393.094 766.836 394.781C767.281 396.445 767.949 397.922 768.84 399.211C769.754 400.5 770.891 401.52 772.25 402.27C773.609 402.996 775.191 403.359 776.996 403.359C778.777 403.359 780.336 402.996 781.672 402.27C783.031 401.52 784.156 400.5 785.047 399.211C785.938 397.922 786.605 396.445 787.051 394.781C787.52 393.094 787.754 391.301 787.754 389.402V388.594C787.754 386.719 787.52 384.949 787.051 383.285C786.605 381.598 785.926 380.109 785.012 378.82C784.121 377.508 782.996 376.477 781.637 375.727C780.301 374.977 778.73 374.602 776.926 374.602C775.145 374.602 773.574 374.977 772.215 375.727C770.879 376.477 769.754 377.508 768.84 378.82C767.949 380.109 767.281 381.598 766.836 383.285C766.391 384.949 766.168 386.719 766.168 388.594ZM818.375 369.961V374.953H797.809V369.961H818.375ZM804.77 360.715H811.273V398.578C811.273 399.867 811.473 400.84 811.871 401.496C812.27 402.152 812.785 402.586 813.418 402.797C814.051 403.008 814.73 403.113 815.457 403.113C815.996 403.113 816.559 403.066 817.145 402.973C817.754 402.855 818.211 402.762 818.516 402.691L818.551 408C818.035 408.164 817.355 408.316 816.512 408.457C815.691 408.621 814.695 408.703 813.523 408.703C811.93 408.703 810.465 408.387 809.129 407.754C807.793 407.121 806.727 406.066 805.93 404.59C805.156 403.09 804.77 401.074 804.77 398.543V360.715ZM823.578 389.402V388.594C823.578 385.852 823.977 383.309 824.773 380.965C825.57 378.598 826.719 376.547 828.219 374.812C829.719 373.055 831.535 371.695 833.668 370.734C835.801 369.75 838.191 369.258 840.84 369.258C843.512 369.258 845.914 369.75 848.047 370.734C850.203 371.695 852.031 373.055 853.531 374.812C855.055 376.547 856.215 378.598 857.012 380.965C857.809 383.309 858.207 385.852 858.207 388.594V389.402C858.207 392.145 857.809 394.688 857.012 397.031C856.215 399.375 855.055 401.426 853.531 403.184C852.031 404.918 850.215 406.277 848.082 407.262C845.973 408.223 843.582 408.703 840.91 408.703C838.238 408.703 835.836 408.223 833.703 407.262C831.57 406.277 829.742 404.918 828.219 403.184C826.719 401.426 825.57 399.375 824.773 397.031C823.977 394.688 823.578 392.145 823.578 389.402ZM830.082 388.594V389.402C830.082 391.301 830.305 393.094 830.75 394.781C831.195 396.445 831.863 397.922 832.754 399.211C833.668 400.5 834.805 401.52 836.164 402.27C837.523 402.996 839.105 403.359 840.91 403.359C842.691 403.359 844.25 402.996 845.586 402.27C846.945 401.52 848.07 400.5 848.961 399.211C849.852 397.922 850.52 396.445 850.965 394.781C851.434 393.094 851.668 391.301 851.668 389.402V388.594C851.668 386.719 851.434 384.949 850.965 383.285C850.52 381.598 849.84 380.109 848.926 378.82C848.035 377.508 846.91 376.477 845.551 375.727C844.215 374.977 842.645 374.602 840.84 374.602C839.059 374.602 837.488 374.977 836.129 375.727C834.793 376.477 833.668 377.508 832.754 378.82C831.863 380.109 831.195 381.598 830.75 383.285C830.305 384.949 830.082 386.719 830.082 388.594ZM891.008 369.961H896.914V407.191C896.914 410.543 896.234 413.402 894.875 415.77C893.516 418.137 891.617 419.93 889.18 421.148C886.766 422.391 883.977 423.012 880.812 423.012C879.5 423.012 877.953 422.801 876.172 422.379C874.414 421.98 872.68 421.289 870.969 420.305C869.281 419.344 867.863 418.043 866.715 416.402L870.125 412.535C871.719 414.457 873.383 415.793 875.117 416.543C876.875 417.293 878.609 417.668 880.32 417.668C882.383 417.668 884.164 417.281 885.664 416.508C887.164 415.734 888.324 414.586 889.145 413.062C889.988 411.562 890.41 409.711 890.41 407.508V378.328L891.008 369.961ZM864.816 389.402V388.664C864.816 385.758 865.156 383.121 865.836 380.754C866.539 378.363 867.535 376.312 868.824 374.602C870.137 372.891 871.719 371.578 873.57 370.664C875.422 369.727 877.508 369.258 879.828 369.258C882.219 369.258 884.305 369.68 886.086 370.523C887.891 371.344 889.414 372.551 890.656 374.145C891.922 375.715 892.918 377.613 893.645 379.84C894.371 382.066 894.875 384.586 895.156 387.398V390.633C894.898 393.422 894.395 395.93 893.645 398.156C892.918 400.383 891.922 402.281 890.656 403.852C889.414 405.422 887.891 406.629 886.086 407.473C884.281 408.293 882.172 408.703 879.758 408.703C877.484 408.703 875.422 408.223 873.57 407.262C871.742 406.301 870.172 404.953 868.859 403.219C867.547 401.484 866.539 399.445 865.836 397.102C865.156 394.734 864.816 392.168 864.816 389.402ZM871.32 388.664V389.402C871.32 391.301 871.508 393.082 871.883 394.746C872.281 396.41 872.879 397.875 873.676 399.141C874.496 400.406 875.539 401.402 876.805 402.129C878.07 402.832 879.582 403.184 881.34 403.184C883.496 403.184 885.277 402.727 886.684 401.812C888.09 400.898 889.203 399.691 890.023 398.191C890.867 396.691 891.523 395.062 891.992 393.305V384.832C891.734 383.543 891.336 382.301 890.797 381.105C890.281 379.887 889.602 378.809 888.758 377.871C887.938 376.91 886.918 376.148 885.699 375.586C884.48 375.023 883.051 374.742 881.41 374.742C879.629 374.742 878.094 375.117 876.805 375.867C875.539 376.594 874.496 377.602 873.676 378.891C872.879 380.156 872.281 381.633 871.883 383.32C871.508 384.984 871.32 386.766 871.32 388.664ZM913.297 375.938V408H906.793V369.961H913.121L913.297 375.938ZM925.18 369.75L925.145 375.797C924.605 375.68 924.09 375.609 923.598 375.586C923.129 375.539 922.59 375.516 921.98 375.516C920.48 375.516 919.156 375.75 918.008 376.219C916.859 376.688 915.887 377.344 915.09 378.188C914.293 379.031 913.66 380.039 913.191 381.211C912.746 382.359 912.453 383.625 912.312 385.008L910.484 386.062C910.484 383.766 910.707 381.609 911.152 379.594C911.621 377.578 912.336 375.797 913.297 374.25C914.258 372.68 915.477 371.461 916.953 370.594C918.453 369.703 920.234 369.258 922.297 369.258C922.766 369.258 923.305 369.316 923.914 369.434C924.523 369.527 924.945 369.633 925.18 369.75ZM952.215 401.496V381.914C952.215 380.414 951.91 379.113 951.301 378.012C950.715 376.887 949.824 376.02 948.629 375.41C947.434 374.801 945.957 374.496 944.199 374.496C942.559 374.496 941.117 374.777 939.875 375.34C938.656 375.902 937.695 376.641 936.992 377.555C936.312 378.469 935.973 379.453 935.973 380.508H929.469C929.469 379.148 929.82 377.801 930.523 376.465C931.227 375.129 932.234 373.922 933.547 372.844C934.883 371.742 936.477 370.875 938.328 370.242C940.203 369.586 942.289 369.258 944.586 369.258C947.352 369.258 949.789 369.727 951.898 370.664C954.031 371.602 955.695 373.02 956.891 374.918C958.109 376.793 958.719 379.148 958.719 381.984V399.703C958.719 400.969 958.824 402.316 959.035 403.746C959.27 405.176 959.609 406.406 960.055 407.438V408H953.27C952.941 407.25 952.684 406.254 952.496 405.012C952.309 403.746 952.215 402.574 952.215 401.496ZM953.34 384.938L953.41 389.508H946.836C944.984 389.508 943.332 389.66 941.879 389.965C940.426 390.246 939.207 390.68 938.223 391.266C937.238 391.852 936.488 392.59 935.973 393.48C935.457 394.348 935.199 395.367 935.199 396.539C935.199 397.734 935.469 398.824 936.008 399.809C936.547 400.793 937.355 401.578 938.434 402.164C939.535 402.727 940.883 403.008 942.477 403.008C944.469 403.008 946.227 402.586 947.75 401.742C949.273 400.898 950.48 399.867 951.371 398.648C952.285 397.43 952.777 396.246 952.848 395.098L955.625 398.227C955.461 399.211 955.016 400.301 954.289 401.496C953.562 402.691 952.59 403.84 951.371 404.941C950.176 406.02 948.746 406.922 947.082 407.648C945.441 408.352 943.59 408.703 941.527 408.703C938.949 408.703 936.688 408.199 934.742 407.191C932.82 406.184 931.32 404.836 930.242 403.148C929.188 401.438 928.66 399.527 928.66 397.418C928.66 395.379 929.059 393.586 929.855 392.039C930.652 390.469 931.801 389.168 933.301 388.137C934.801 387.082 936.605 386.285 938.715 385.746C940.824 385.207 943.18 384.938 945.781 384.938H953.34ZM975.453 377.273V422.625H968.914V369.961H974.891L975.453 377.273ZM1001.08 388.664V389.402C1001.08 392.168 1000.75 394.734 1000.1 397.102C999.441 399.445 998.48 401.484 997.215 403.219C995.973 404.953 994.438 406.301 992.609 407.262C990.781 408.223 988.684 408.703 986.316 408.703C983.902 408.703 981.77 408.305 979.918 407.508C978.066 406.711 976.496 405.551 975.207 404.027C973.918 402.504 972.887 400.676 972.113 398.543C971.363 396.41 970.848 394.008 970.566 391.336V387.398C970.848 384.586 971.375 382.066 972.148 379.84C972.922 377.613 973.941 375.715 975.207 374.145C976.496 372.551 978.055 371.344 979.883 370.523C981.711 369.68 983.82 369.258 986.211 369.258C988.602 369.258 990.723 369.727 992.574 370.664C994.426 371.578 995.984 372.891 997.25 374.602C998.516 376.312 999.465 378.363 1000.1 380.754C1000.75 383.121 1001.08 385.758 1001.08 388.664ZM994.543 389.402V388.664C994.543 386.766 994.344 384.984 993.945 383.32C993.547 381.633 992.926 380.156 992.082 378.891C991.262 377.602 990.207 376.594 988.918 375.867C987.629 375.117 986.094 374.742 984.312 374.742C982.672 374.742 981.242 375.023 980.023 375.586C978.828 376.148 977.809 376.91 976.965 377.871C976.121 378.809 975.43 379.887 974.891 381.105C974.375 382.301 973.988 383.543 973.73 384.832V393.938C974.199 395.578 974.855 397.125 975.699 398.578C976.543 400.008 977.668 401.168 979.074 402.059C980.48 402.926 982.25 403.359 984.383 403.359C986.141 403.359 987.652 402.996 988.918 402.27C990.207 401.52 991.262 400.5 992.082 399.211C992.926 397.922 993.547 396.445 993.945 394.781C994.344 393.094 994.543 391.301 994.543 389.402ZM1015.88 354V408H1009.38V354H1015.88ZM1014.34 387.539L1011.63 387.434C1011.65 384.832 1012.04 382.43 1012.79 380.227C1013.54 378 1014.59 376.066 1015.95 374.426C1017.31 372.785 1018.93 371.52 1020.8 370.629C1022.7 369.715 1024.8 369.258 1027.1 369.258C1028.97 369.258 1030.66 369.516 1032.16 370.031C1033.66 370.523 1034.94 371.32 1035.99 372.422C1037.07 373.523 1037.89 374.953 1038.45 376.711C1039.02 378.445 1039.3 380.566 1039.3 383.074V408H1032.76V383.004C1032.76 381.012 1032.46 379.418 1031.88 378.223C1031.29 377.004 1030.44 376.125 1029.31 375.586C1028.19 375.023 1026.8 374.742 1025.16 374.742C1023.55 374.742 1022.07 375.082 1020.73 375.762C1019.42 376.441 1018.29 377.379 1017.32 378.574C1016.39 379.77 1015.65 381.141 1015.11 382.688C1014.59 384.211 1014.34 385.828 1014.34 387.539ZM1059.72 404.062L1070.3 369.961H1077.27L1062.01 413.871C1061.66 414.809 1061.19 415.816 1060.6 416.895C1060.04 417.996 1059.31 419.039 1058.42 420.023C1057.53 421.008 1056.45 421.805 1055.19 422.414C1053.95 423.047 1052.46 423.363 1050.72 423.363C1050.21 423.363 1049.55 423.293 1048.75 423.152C1047.96 423.012 1047.39 422.895 1047.07 422.801L1047.03 417.527C1047.22 417.551 1047.51 417.574 1047.91 417.598C1048.33 417.645 1048.62 417.668 1048.79 417.668C1050.27 417.668 1051.52 417.469 1052.55 417.07C1053.58 416.695 1054.45 416.051 1055.15 415.137C1055.88 414.246 1056.5 413.016 1057.02 411.445L1059.72 404.062ZM1051.95 369.961L1061.83 399.492L1063.52 406.348L1058.84 408.738L1044.85 369.961H1051.95ZM1115.83 408H1105.14L1105.21 402.48H1115.83C1119.49 402.48 1122.54 401.719 1124.97 400.195C1127.41 398.648 1129.24 396.492 1130.46 393.727C1131.7 390.938 1132.32 387.68 1132.32 383.953V380.824C1132.32 377.895 1131.97 375.293 1131.27 373.02C1130.56 370.723 1129.53 368.789 1128.17 367.219C1126.81 365.625 1125.15 364.418 1123.18 363.598C1121.23 362.777 1119 362.367 1116.46 362.367H1104.93V356.812H1116.46C1119.82 356.812 1122.88 357.375 1125.64 358.5C1128.41 359.602 1130.79 361.207 1132.78 363.316C1134.79 365.402 1136.34 367.934 1137.42 370.91C1138.5 373.863 1139.04 377.191 1139.04 380.895V383.953C1139.04 387.656 1138.5 390.996 1137.42 393.973C1136.34 396.926 1134.78 399.445 1132.74 401.531C1130.73 403.617 1128.29 405.223 1125.43 406.348C1122.59 407.449 1119.39 408 1115.83 408ZM1108.77 356.812V408H1101.98V356.812H1108.77ZM1155.31 369.961V408H1148.77V369.961H1155.31ZM1148.28 359.871C1148.28 358.816 1148.6 357.926 1149.23 357.199C1149.89 356.473 1150.85 356.109 1152.11 356.109C1153.36 356.109 1154.3 356.473 1154.96 357.199C1155.64 357.926 1155.98 358.816 1155.98 359.871C1155.98 360.879 1155.64 361.746 1154.96 362.473C1154.3 363.176 1153.36 363.527 1152.11 363.527C1150.85 363.527 1149.89 363.176 1149.23 362.473C1148.6 361.746 1148.28 360.879 1148.28 359.871ZM1190.4 369.961H1196.3V407.191C1196.3 410.543 1195.62 413.402 1194.27 415.77C1192.91 418.137 1191.01 419.93 1188.57 421.148C1186.16 422.391 1183.37 423.012 1180.2 423.012C1178.89 423.012 1177.34 422.801 1175.56 422.379C1173.8 421.98 1172.07 421.289 1170.36 420.305C1168.67 419.344 1167.25 418.043 1166.11 416.402L1169.52 412.535C1171.11 414.457 1172.77 415.793 1174.51 416.543C1176.27 417.293 1178 417.668 1179.71 417.668C1181.77 417.668 1183.55 417.281 1185.05 416.508C1186.55 415.734 1187.71 414.586 1188.54 413.062C1189.38 411.562 1189.8 409.711 1189.8 407.508V378.328L1190.4 369.961ZM1164.21 389.402V388.664C1164.21 385.758 1164.55 383.121 1165.23 380.754C1165.93 378.363 1166.93 376.312 1168.21 374.602C1169.53 372.891 1171.11 371.578 1172.96 370.664C1174.81 369.727 1176.9 369.258 1179.22 369.258C1181.61 369.258 1183.7 369.68 1185.48 370.523C1187.28 371.344 1188.8 372.551 1190.05 374.145C1191.31 375.715 1192.31 377.613 1193.04 379.84C1193.76 382.066 1194.27 384.586 1194.55 387.398V390.633C1194.29 393.422 1193.79 395.93 1193.04 398.156C1192.31 400.383 1191.31 402.281 1190.05 403.852C1188.8 405.422 1187.28 406.629 1185.48 407.473C1183.67 408.293 1181.56 408.703 1179.15 408.703C1176.88 408.703 1174.81 408.223 1172.96 407.262C1171.13 406.301 1169.56 404.953 1168.25 403.219C1166.94 401.484 1165.93 399.445 1165.23 397.102C1164.55 394.734 1164.21 392.168 1164.21 389.402ZM1170.71 388.664V389.402C1170.71 391.301 1170.9 393.082 1171.27 394.746C1171.67 396.41 1172.27 397.875 1173.07 399.141C1173.89 400.406 1174.93 401.402 1176.2 402.129C1177.46 402.832 1178.97 403.184 1180.73 403.184C1182.89 403.184 1184.67 402.727 1186.07 401.812C1187.48 400.898 1188.59 399.691 1189.41 398.191C1190.26 396.691 1190.91 395.062 1191.38 393.305V384.832C1191.12 383.543 1190.73 382.301 1190.19 381.105C1189.67 379.887 1188.99 378.809 1188.15 377.871C1187.33 376.91 1186.31 376.148 1185.09 375.586C1183.87 375.023 1182.44 374.742 1180.8 374.742C1179.02 374.742 1177.48 375.117 1176.2 375.867C1174.93 376.594 1173.89 377.602 1173.07 378.891C1172.27 380.156 1171.67 381.633 1171.27 383.32C1170.9 384.984 1170.71 386.766 1170.71 388.664ZM1213.25 369.961V408H1206.71V369.961H1213.25ZM1206.22 359.871C1206.22 358.816 1206.54 357.926 1207.17 357.199C1207.82 356.473 1208.79 356.109 1210.05 356.109C1211.29 356.109 1212.24 356.473 1212.9 357.199C1213.58 357.926 1213.92 358.816 1213.92 359.871C1213.92 360.879 1213.58 361.746 1212.9 362.473C1212.24 363.176 1211.29 363.527 1210.05 363.527C1208.79 363.527 1207.82 363.176 1207.17 362.473C1206.54 361.746 1206.22 360.879 1206.22 359.871ZM1239.62 369.961V374.953H1219.05V369.961H1239.62ZM1226.01 360.715H1232.52V398.578C1232.52 399.867 1232.71 400.84 1233.11 401.496C1233.51 402.152 1234.03 402.586 1234.66 402.797C1235.29 403.008 1235.97 403.113 1236.7 403.113C1237.24 403.113 1237.8 403.066 1238.39 402.973C1239 402.855 1239.45 402.762 1239.76 402.691L1239.79 408C1239.28 408.164 1238.6 408.316 1237.75 408.457C1236.93 408.621 1235.94 408.703 1234.77 408.703C1233.17 408.703 1231.71 408.387 1230.37 407.754C1229.04 407.121 1227.97 406.066 1227.17 404.59C1226.4 403.09 1226.01 401.074 1226.01 398.543V360.715ZM1269.68 401.496V381.914C1269.68 380.414 1269.37 379.113 1268.76 378.012C1268.18 376.887 1267.29 376.02 1266.09 375.41C1264.89 374.801 1263.42 374.496 1261.66 374.496C1260.02 374.496 1258.58 374.777 1257.34 375.34C1256.12 375.902 1255.16 376.641 1254.45 377.555C1253.77 378.469 1253.43 379.453 1253.43 380.508H1246.93C1246.93 379.148 1247.28 377.801 1247.98 376.465C1248.69 375.129 1249.7 373.922 1251.01 372.844C1252.34 371.742 1253.94 370.875 1255.79 370.242C1257.66 369.586 1259.75 369.258 1262.05 369.258C1264.81 369.258 1267.25 369.727 1269.36 370.664C1271.49 371.602 1273.16 373.02 1274.35 374.918C1275.57 376.793 1276.18 379.148 1276.18 381.984V399.703C1276.18 400.969 1276.29 402.316 1276.5 403.746C1276.73 405.176 1277.07 406.406 1277.52 407.438V408H1270.73C1270.4 407.25 1270.14 406.254 1269.96 405.012C1269.77 403.746 1269.68 402.574 1269.68 401.496ZM1270.8 384.938L1270.87 389.508H1264.3C1262.45 389.508 1260.79 389.66 1259.34 389.965C1257.89 390.246 1256.67 390.68 1255.68 391.266C1254.7 391.852 1253.95 392.59 1253.43 393.48C1252.92 394.348 1252.66 395.367 1252.66 396.539C1252.66 397.734 1252.93 398.824 1253.47 399.809C1254.01 400.793 1254.82 401.578 1255.89 402.164C1257 402.727 1258.34 403.008 1259.94 403.008C1261.93 403.008 1263.69 402.586 1265.21 401.742C1266.73 400.898 1267.94 399.867 1268.83 398.648C1269.75 397.43 1270.24 396.246 1270.31 395.098L1273.09 398.227C1272.92 399.211 1272.48 400.301 1271.75 401.496C1271.02 402.691 1270.05 403.84 1268.83 404.941C1267.64 406.02 1266.21 406.922 1264.54 407.648C1262.9 408.352 1261.05 408.703 1258.99 408.703C1256.41 408.703 1254.15 408.199 1252.2 407.191C1250.28 406.184 1248.78 404.836 1247.7 403.148C1246.65 401.438 1246.12 399.527 1246.12 397.418C1246.12 395.379 1246.52 393.586 1247.32 392.039C1248.11 390.469 1249.26 389.168 1250.76 388.137C1252.26 387.082 1254.07 386.285 1256.18 385.746C1258.29 385.207 1260.64 384.938 1263.24 384.938H1270.8ZM1293.48 354V408H1286.94V354H1293.48ZM1341.71 361.348L1324.77 408H1317.84L1337.35 356.812H1341.82L1341.71 361.348ZM1355.91 408L1338.93 361.348L1338.83 356.812H1343.29L1362.88 408H1355.91ZM1355.04 389.051V394.605H1326.28V389.051H1355.04ZM1375.25 375.938V408H1368.75V369.961H1375.07L1375.25 375.938ZM1387.13 369.75L1387.1 375.797C1386.56 375.68 1386.04 375.609 1385.55 375.586C1385.08 375.539 1384.54 375.516 1383.93 375.516C1382.43 375.516 1381.11 375.75 1379.96 376.219C1378.81 376.688 1377.84 377.344 1377.04 378.188C1376.25 379.031 1375.61 380.039 1375.14 381.211C1374.7 382.359 1374.41 383.625 1374.27 385.008L1372.44 386.062C1372.44 383.766 1372.66 381.609 1373.11 379.594C1373.57 377.578 1374.29 375.797 1375.25 374.25C1376.21 372.68 1377.43 371.461 1378.91 370.594C1380.41 369.703 1382.19 369.258 1384.25 369.258C1384.72 369.258 1385.26 369.316 1385.87 369.434C1386.48 369.527 1386.9 369.633 1387.13 369.75ZM1410.83 369.961V374.953H1390.26V369.961H1410.83ZM1397.22 360.715H1403.73V398.578C1403.73 399.867 1403.93 400.84 1404.32 401.496C1404.72 402.152 1405.24 402.586 1405.87 402.797C1406.5 403.008 1407.18 403.113 1407.91 403.113C1408.45 403.113 1409.01 403.066 1409.6 402.973C1410.21 402.855 1410.66 402.762 1410.97 402.691L1411 408C1410.49 408.164 1409.81 408.316 1408.96 408.457C1408.14 408.621 1407.15 408.703 1405.98 408.703C1404.38 408.703 1402.92 408.387 1401.58 407.754C1400.25 407.121 1399.18 406.066 1398.38 404.59C1397.61 403.09 1397.22 401.074 1397.22 398.543V360.715ZM1444.09 356.812V408H1437.3V356.812H1444.09ZM1465.53 379.84V385.395H1442.61V379.84H1465.53ZM1469.01 356.812V362.367H1442.61V356.812H1469.01ZM1497.35 401.496V381.914C1497.35 380.414 1497.04 379.113 1496.43 378.012C1495.85 376.887 1494.96 376.02 1493.76 375.41C1492.57 374.801 1491.09 374.496 1489.33 374.496C1487.69 374.496 1486.25 374.777 1485.01 375.34C1483.79 375.902 1482.83 376.641 1482.12 377.555C1481.45 378.469 1481.11 379.453 1481.11 380.508H1474.6C1474.6 379.148 1474.95 377.801 1475.66 376.465C1476.36 375.129 1477.37 373.922 1478.68 372.844C1480.02 371.742 1481.61 370.875 1483.46 370.242C1485.34 369.586 1487.42 369.258 1489.72 369.258C1492.48 369.258 1494.92 369.727 1497.03 370.664C1499.16 371.602 1500.83 373.02 1502.02 374.918C1503.24 376.793 1503.85 379.148 1503.85 381.984V399.703C1503.85 400.969 1503.96 402.316 1504.17 403.746C1504.4 405.176 1504.74 406.406 1505.19 407.438V408H1498.4C1498.07 407.25 1497.82 406.254 1497.63 405.012C1497.44 403.746 1497.35 402.574 1497.35 401.496ZM1498.47 384.938L1498.54 389.508H1491.97C1490.12 389.508 1488.46 389.66 1487.01 389.965C1485.56 390.246 1484.34 390.68 1483.36 391.266C1482.37 391.852 1481.62 392.59 1481.11 393.48C1480.59 394.348 1480.33 395.367 1480.33 396.539C1480.33 397.734 1480.6 398.824 1481.14 399.809C1481.68 400.793 1482.49 401.578 1483.57 402.164C1484.67 402.727 1486.02 403.008 1487.61 403.008C1489.6 403.008 1491.36 402.586 1492.88 401.742C1494.41 400.898 1495.61 399.867 1496.5 398.648C1497.42 397.43 1497.91 396.246 1497.98 395.098L1500.76 398.227C1500.59 399.211 1500.15 400.301 1499.42 401.496C1498.7 402.691 1497.72 403.84 1496.5 404.941C1495.31 406.02 1493.88 406.922 1492.21 407.648C1490.57 408.352 1488.72 408.703 1486.66 408.703C1484.08 408.703 1481.82 408.199 1479.88 407.191C1477.95 406.184 1476.45 404.836 1475.38 403.148C1474.32 401.438 1473.79 399.527 1473.79 397.418C1473.79 395.379 1474.19 393.586 1474.99 392.039C1475.79 390.469 1476.93 389.168 1478.43 388.137C1479.93 387.082 1481.74 386.285 1483.85 385.746C1485.96 385.207 1488.31 384.938 1490.91 384.938H1498.47ZM1536.23 397.91C1536.23 396.973 1536.02 396.105 1535.6 395.309C1535.2 394.488 1534.37 393.75 1533.1 393.094C1531.86 392.414 1529.98 391.828 1527.48 391.336C1525.37 390.891 1523.46 390.363 1521.75 389.754C1520.06 389.145 1518.62 388.406 1517.42 387.539C1516.25 386.672 1515.35 385.652 1514.71 384.48C1514.08 383.309 1513.77 381.938 1513.77 380.367C1513.77 378.867 1514.09 377.449 1514.75 376.113C1515.43 374.777 1516.38 373.594 1517.6 372.562C1518.84 371.531 1520.33 370.723 1522.06 370.137C1523.8 369.551 1525.73 369.258 1527.86 369.258C1530.91 369.258 1533.51 369.797 1535.67 370.875C1537.82 371.953 1539.48 373.395 1540.62 375.199C1541.77 376.98 1542.35 378.961 1542.35 381.141H1535.84C1535.84 380.086 1535.53 379.066 1534.89 378.082C1534.29 377.074 1533.38 376.242 1532.19 375.586C1531.02 374.93 1529.57 374.602 1527.86 374.602C1526.06 374.602 1524.59 374.883 1523.47 375.445C1522.37 375.984 1521.56 376.676 1521.04 377.52C1520.55 378.363 1520.3 379.254 1520.3 380.191C1520.3 380.895 1520.42 381.527 1520.66 382.09C1520.91 382.629 1521.36 383.133 1521.99 383.602C1522.62 384.047 1523.52 384.469 1524.66 384.867C1525.81 385.266 1527.28 385.664 1529.06 386.062C1532.18 386.766 1534.74 387.609 1536.76 388.594C1538.77 389.578 1540.27 390.785 1541.26 392.215C1542.24 393.645 1542.73 395.379 1542.73 397.418C1542.73 399.082 1542.38 400.605 1541.68 401.988C1541 403.371 1540 404.566 1538.69 405.574C1537.4 406.559 1535.86 407.332 1534.05 407.895C1532.27 408.434 1530.27 408.703 1528.04 408.703C1524.69 408.703 1521.85 408.105 1519.53 406.91C1517.21 405.715 1515.45 404.168 1514.26 402.27C1513.06 400.371 1512.46 398.367 1512.46 396.258H1519C1519.1 398.039 1519.61 399.457 1520.55 400.512C1521.49 401.543 1522.64 402.281 1524 402.727C1525.36 403.148 1526.7 403.359 1528.04 403.359C1529.82 403.359 1531.31 403.125 1532.5 402.656C1533.72 402.188 1534.65 401.543 1535.28 400.723C1535.91 399.902 1536.23 398.965 1536.23 397.91ZM1557.78 354V408H1551.28V354H1557.78ZM1556.23 387.539L1553.53 387.434C1553.55 384.832 1553.94 382.43 1554.69 380.227C1555.44 378 1556.49 376.066 1557.85 374.426C1559.21 372.785 1560.83 371.52 1562.7 370.629C1564.6 369.715 1566.7 369.258 1569 369.258C1570.87 369.258 1572.56 369.516 1574.06 370.031C1575.56 370.523 1576.84 371.32 1577.89 372.422C1578.97 373.523 1579.79 374.953 1580.35 376.711C1580.91 378.445 1581.2 380.566 1581.2 383.074V408H1574.66V383.004C1574.66 381.012 1574.36 379.418 1573.78 378.223C1573.19 377.004 1572.34 376.125 1571.21 375.586C1570.09 375.023 1568.7 374.742 1567.06 374.742C1565.45 374.742 1563.97 375.082 1562.63 375.762C1561.32 376.441 1560.18 377.379 1559.22 378.574C1558.29 379.77 1557.55 381.141 1557.01 382.688C1556.49 384.211 1556.23 385.828 1556.23 387.539ZM1598 369.961V408H1591.46V369.961H1598ZM1590.97 359.871C1590.97 358.816 1591.29 357.926 1591.92 357.199C1592.57 356.473 1593.54 356.109 1594.8 356.109C1596.04 356.109 1596.99 356.473 1597.65 357.199C1598.33 357.926 1598.67 358.816 1598.67 359.871C1598.67 360.879 1598.33 361.746 1597.65 362.473C1596.99 363.176 1596.04 363.527 1594.8 363.527C1593.54 363.527 1592.57 363.176 1591.92 362.473C1591.29 361.746 1590.97 360.879 1590.97 359.871ZM1606.72 389.402V388.594C1606.72 385.852 1607.12 383.309 1607.91 380.965C1608.71 378.598 1609.86 376.547 1611.36 374.812C1612.86 373.055 1614.68 371.695 1616.81 370.734C1618.94 369.75 1621.33 369.258 1623.98 369.258C1626.65 369.258 1629.05 369.75 1631.19 370.734C1633.34 371.695 1635.17 373.055 1636.67 374.812C1638.2 376.547 1639.36 378.598 1640.15 380.965C1640.95 383.309 1641.35 385.852 1641.35 388.594V389.402C1641.35 392.145 1640.95 394.688 1640.15 397.031C1639.36 399.375 1638.2 401.426 1636.67 403.184C1635.17 404.918 1633.36 406.277 1631.22 407.262C1629.11 408.223 1626.72 408.703 1624.05 408.703C1621.38 408.703 1618.98 408.223 1616.84 407.262C1614.71 406.277 1612.88 404.918 1611.36 403.184C1609.86 401.426 1608.71 399.375 1607.91 397.031C1607.12 394.688 1606.72 392.145 1606.72 389.402ZM1613.22 388.594V389.402C1613.22 391.301 1613.45 393.094 1613.89 394.781C1614.34 396.445 1615 397.922 1615.89 399.211C1616.81 400.5 1617.95 401.52 1619.3 402.27C1620.66 402.996 1622.25 403.359 1624.05 403.359C1625.83 403.359 1627.39 402.996 1628.73 402.27C1630.09 401.52 1631.21 400.5 1632.1 399.211C1632.99 397.922 1633.66 396.445 1634.11 394.781C1634.57 393.094 1634.81 391.301 1634.81 389.402V388.594C1634.81 386.719 1634.57 384.949 1634.11 383.285C1633.66 381.598 1632.98 380.109 1632.07 378.82C1631.18 377.508 1630.05 376.477 1628.69 375.727C1627.36 374.977 1625.79 374.602 1623.98 374.602C1622.2 374.602 1620.63 374.977 1619.27 375.727C1617.93 376.477 1616.81 377.508 1615.89 378.82C1615 380.109 1614.34 381.598 1613.89 383.285C1613.45 384.949 1613.22 386.719 1613.22 388.594ZM1656.01 378.082V408H1649.5V369.961H1655.66L1656.01 378.082ZM1654.46 387.539L1651.75 387.434C1651.78 384.832 1652.16 382.43 1652.91 380.227C1653.66 378 1654.72 376.066 1656.08 374.426C1657.44 372.785 1659.05 371.52 1660.93 370.629C1662.83 369.715 1664.93 369.258 1667.22 369.258C1669.1 369.258 1670.79 369.516 1672.29 370.031C1673.79 370.523 1675.06 371.32 1676.12 372.422C1677.2 373.523 1678.02 374.953 1678.58 376.711C1679.14 378.445 1679.42 380.566 1679.42 383.074V408H1672.88V383.004C1672.88 381.012 1672.59 379.418 1672 378.223C1671.42 377.004 1670.56 376.125 1669.44 375.586C1668.31 375.023 1666.93 374.742 1665.29 374.742C1663.67 374.742 1662.2 375.082 1660.86 375.762C1659.55 376.441 1658.41 377.379 1657.45 378.574C1656.51 379.77 1655.77 381.141 1655.23 382.688C1654.72 384.211 1654.46 385.828 1654.46 387.539Z" fill="#EEEEEE"/>
</g>
<defs>
<clipPath id="clip0_2_21">
<rect width="1440" height="775" fill="white"/>
</clipPath>
</defs>
</svg>
